<svg width="79" height="85" viewBox="0 0 79 85" fill="none" xmlns="http://www.w3.org/2000/svg">
<path d="M39.16 84.28C31.48 84.28 24.696 83.0427 18.808 80.568C13.0053 78.008 8.44 74.296 5.112 69.432C1.784 64.4827 0.12 58.424 0.12 51.256V0.567993H24.184V48.696C24.184 58.7653 29.176 63.8 39.16 63.8C43.9387 63.8 47.608 62.5627 50.168 60.088C52.728 57.6133 54.008 53.816 54.008 48.696V0.567993H78.072V51.256C78.072 58.424 76.408 64.4827 73.08 69.432C69.8373 74.296 65.272 78.008 59.384 80.568C53.5813 83.0427 46.84 84.28 39.16 84.28Z" fill="#E4D86B"/>
</svg>
