<svg width="130" height="109" viewBox="0 0 130 109" fill="none" xmlns="http://www.w3.org/2000/svg">
<mask id="path-1-outside-1_41_6" maskUnits="userSpaceOnUse" x="46" y="18" width="38" height="48" fill="black">
<rect fill="white" x="46" y="18" width="38" height="48"/>
<path d="M64.888 64.64C61.6027 64.64 58.6587 63.9147 56.056 62.464C53.496 60.9707 51.4693 58.944 49.976 56.384C48.4827 53.7813 47.736 50.8373 47.736 47.552V19.584H53.752V47.424C53.752 49.7707 54.2427 51.7973 55.224 53.504C56.2053 55.2107 57.528 56.5333 59.192 57.472C60.8987 58.4107 62.7973 58.88 64.888 58.88C67.064 58.88 68.9627 58.4107 70.584 57.472C72.248 56.5333 73.5493 55.2107 74.488 53.504C75.4693 51.7973 75.96 49.792 75.96 47.488V19.584H82.04V47.616C82.04 50.9013 81.2933 53.824 79.8 56.384C78.3067 58.944 76.28 60.9707 73.72 62.464C71.16 63.9147 68.216 64.64 64.888 64.64Z"/>
</mask>
<path d="M56.056 62.464L55.5521 63.3278L55.5606 63.3327L55.5691 63.3375L56.056 62.464ZM49.976 56.384L49.1086 56.8817L49.1122 56.8879L49.976 56.384ZM47.736 19.584V18.584H46.736V19.584H47.736ZM53.752 19.584H54.752V18.584H53.752V19.584ZM55.224 53.504L54.3571 54.0025L54.3571 54.0025L55.224 53.504ZM59.192 57.472L58.7007 58.343L58.7101 58.3482L59.192 57.472ZM70.584 57.472L70.0926 56.601L70.083 56.6066L70.584 57.472ZM74.488 53.504L73.6211 53.0055L73.6164 53.0138L73.6118 53.0221L74.488 53.504ZM75.96 19.584V18.584H74.96V19.584H75.96ZM82.04 19.584H83.04V18.584H82.04V19.584ZM79.8 56.384L80.6638 56.8879L80.6638 56.8879L79.8 56.384ZM73.72 62.464L74.2131 63.3341L74.2239 63.3278L73.72 62.464ZM64.888 63.64C61.7552 63.64 58.9818 62.9499 56.5429 61.5905L55.5691 63.3375C58.3355 64.8794 61.4501 65.64 64.888 65.64V63.64ZM56.5599 61.6002C54.1489 60.1938 52.2462 58.2911 50.8398 55.8801L49.1122 56.8879C50.6925 59.5969 52.8431 61.7475 55.5521 63.3278L56.5599 61.6002ZM50.8434 55.8863C49.445 53.4492 48.736 50.6797 48.736 47.552H46.736C46.736 50.9949 47.5203 54.1134 49.1086 56.8817L50.8434 55.8863ZM48.736 47.552V19.584H46.736V47.552H48.736ZM47.736 20.584H53.752V18.584H47.736V20.584ZM52.752 19.584V47.424H54.752V19.584H52.752ZM52.752 47.424C52.752 49.9119 53.2732 52.1174 54.3571 54.0025L56.0909 53.0055C55.2122 51.4773 54.752 49.6294 54.752 47.424H52.752ZM54.3571 54.0025C55.4251 55.8598 56.8754 57.3133 58.7007 58.343L59.6833 56.601C58.1806 55.7533 56.9856 54.5615 56.0909 53.0055L54.3571 54.0025ZM58.7101 58.3482C60.5752 59.374 62.6416 59.88 64.888 59.88V57.88C62.9531 57.88 61.2222 57.4473 59.6739 56.5958L58.7101 58.3482ZM64.888 59.88C67.2112 59.88 69.2884 59.3776 71.085 58.3374L70.083 56.6066C68.637 57.4437 66.9168 57.88 64.888 57.88V59.88ZM71.0753 58.343C72.9046 57.3111 74.3378 55.8522 75.3642 53.9859L73.6118 53.0221C72.7609 54.5691 71.5914 55.7556 70.0927 56.601L71.0753 58.343ZM75.3549 54.0025C76.4373 52.1201 76.96 49.9369 76.96 47.488H74.96C74.96 49.6471 74.5014 51.4746 73.6211 53.0055L75.3549 54.0025ZM76.96 47.488V19.584H74.96V47.488H76.96ZM75.96 20.584H82.04V18.584H75.96V20.584ZM81.04 19.584V47.616H83.04V19.584H81.04ZM81.04 47.616C81.04 50.744 80.3309 53.4892 78.9362 55.8801L80.6638 56.8879C82.2558 54.1588 83.04 51.0587 83.04 47.616H81.04ZM78.9362 55.8801C77.5298 58.2911 75.6271 60.1938 73.2161 61.6002L74.2239 63.3278C76.9329 61.7475 79.0835 59.5969 80.6638 56.8879L78.9362 55.8801ZM73.227 61.594C70.8362 62.9488 68.0662 63.64 64.888 63.64V65.64C68.3658 65.64 71.4838 64.8806 74.213 63.334L73.227 61.594Z" fill="white" mask="url(#path-1-outside-1_41_6)"/>
<path d="M12.312 100.36C10.464 100.36 8.808 99.952 7.344 99.136C5.904 98.296 4.764 97.156 3.924 95.716C3.084 94.252 2.664 92.596 2.664 90.748V75.016H6.048V90.676C6.048 91.996 6.324 93.136 6.876 94.096C7.428 95.056 8.172 95.8 9.108 96.328C10.068 96.856 11.136 97.12 12.312 97.12C13.536 97.12 14.604 96.856 15.516 96.328C16.452 95.8 17.184 95.056 17.712 94.096C18.264 93.136 18.54 92.008 18.54 90.712V75.016H21.96V90.784C21.96 92.632 21.54 94.276 20.7 95.716C19.86 97.156 18.72 98.296 17.28 99.136C15.84 99.952 14.184 100.36 12.312 100.36ZM33.7987 100V75.736H37.1827V100H33.7987ZM25.3027 78.112V75.016H45.6427V78.112H25.3027ZM59.2225 100.36C57.4465 100.36 55.7905 100.036 54.2545 99.388C52.7185 98.716 51.3745 97.792 50.2225 96.616C49.0705 95.416 48.1705 94.036 47.5225 92.476C46.8985 90.916 46.5865 89.248 46.5865 87.472C46.5865 85.672 46.8985 84.004 47.5225 82.468C48.1705 80.908 49.0585 79.54 50.1865 78.364C51.3385 77.188 52.6705 76.276 54.1825 75.628C55.7185 74.98 57.3745 74.656 59.1505 74.656C60.9265 74.656 62.5705 74.98 64.0825 75.628C65.6185 76.276 66.9625 77.188 68.1145 78.364C69.2665 79.54 70.1665 80.908 70.8145 82.468C71.4625 84.028 71.7865 85.708 71.7865 87.508C71.7865 89.284 71.4625 90.952 70.8145 92.512C70.1665 94.072 69.2665 95.44 68.1145 96.616C66.9865 97.792 65.6545 98.716 64.1185 99.388C62.6065 100.036 60.9745 100.36 59.2225 100.36ZM59.1505 97.12C60.9505 97.12 62.5225 96.712 63.8665 95.896C65.2345 95.056 66.3145 93.916 67.1065 92.476C67.8985 91.012 68.2945 89.344 68.2945 87.472C68.2945 86.08 68.0665 84.808 67.6105 83.656C67.1545 82.48 66.5185 81.46 65.7025 80.596C64.8865 79.732 63.9265 79.072 62.8225 78.616C61.7185 78.136 60.4945 77.896 59.1505 77.896C57.3745 77.896 55.8025 78.304 54.4345 79.12C53.0905 79.936 52.0225 81.064 51.2305 82.504C50.4625 83.944 50.0785 85.6 50.0785 87.472C50.0785 88.864 50.2945 90.16 50.7265 91.36C51.1825 92.536 51.8065 93.556 52.5985 94.42C53.4145 95.26 54.3745 95.92 55.4785 96.4C56.6065 96.88 57.8305 97.12 59.1505 97.12ZM78.6966 90.28V87.328H85.5006C86.4366 87.328 87.2646 87.136 87.9846 86.752C88.7286 86.368 89.3046 85.828 89.7126 85.132C90.1446 84.436 90.3606 83.608 90.3606 82.648C90.3606 81.688 90.1446 80.86 89.7126 80.164C89.3046 79.468 88.7286 78.928 87.9846 78.544C87.2646 78.16 86.4366 77.968 85.5006 77.968H78.6966V75.016H85.7166C87.2526 75.016 88.6206 75.328 89.8206 75.952C91.0446 76.576 92.0046 77.464 92.7006 78.616C93.4206 79.744 93.7806 81.088 93.7806 82.648C93.7806 84.184 93.4206 85.528 92.7006 86.68C92.0046 87.808 91.0446 88.696 89.8206 89.344C88.6206 89.968 87.2526 90.28 85.7166 90.28H78.6966ZM76.4286 100V75.016H79.8126V100H76.4286ZM97.9793 100V75.016H101.363V100H97.9793ZM105.425 100L115.649 75.016H118.097L128.285 100H124.613L116.225 78.868H117.485L109.025 100H105.425ZM110.285 94.348V91.396H123.425V94.348H110.285Z" fill="white"/>
</svg>
